<svg id="Layer_1" data-name="Layer 1" xmlns="http://www.w3.org/2000/svg" viewBox="0 0 873 376"><defs><style>.cls-1,.cls-2{fill:#fff;}.cls-2{font-size:130px;font-family:Poppins-Medium, Poppins;font-weight:500;}.cls-3{font-size:72px;fill:#0073f0;font-family:NotoSansCJKkr-Regular-KSCpc-EUC-H, Noto Sans CJK KR;letter-spacing:-0.05em;}</style></defs><circle class="cls-1" cx="78.88" cy="76.68" r="43"/><rect class="cls-1" x="164.48" y="36.68" width="80" height="80"/><polygon class="cls-1" points="127.15 194.68 45.15 149.68 45.15 239.68 127.15 194.68"/><path class="cls-1" d="M405.89,132.36v36.07a37.7,37.7,0,0,0-25-9.33c-20.65,0-36.6,16.76-36.6,37.4s15.95,37.41,36.6,37.41a37.66,37.66,0,0,0,25-9.35v5.94h14V132.36Zm-23.44,88.93c-16.25,0-25.19-11.71-25.19-24.82s9.33-24.75,25.19-24.75a24.79,24.79,0,0,1,0,49.57Z"/><polygon class="cls-1" points="325.26 162.5 304.37 214.47 280.88 162.5 266.88 162.5 297.7 229.68 285.13 259.68 299.13 259.68 311.05 229.68 339.26 162.5 325.26 162.5"/><polygon class="cls-1" points="231.4 214.47 211.48 162.5 197.48 162.5 177.56 214.47 161.07 162.5 147.07 162.5 170.56 230.5 184.56 230.5 204.48 178.53 224.4 230.5 238.4 230.5 261.88 162.5 247.88 162.5 231.4 214.47"/><text class="cls-2" transform="translate(454 230.38)">studio</text><text class="cls-3" transform="translate(79.35 342.6)">와이드 콘텐츠 관리 시스템</text></svg>